<svg width="47" height="60" viewBox="0 0 47 60" fill="none" xmlns="http://www.w3.org/2000/svg">
<path d="M0.151794 0.732269H27.4361C32.4683 0.732269 36.5099 1.92508 39.545 4.32704C42.58 6.729 44.1054 10.3401 44.1054 15.1931C44.1054 18.1342 43.4135 20.6506 42.0296 22.7421C40.6458 24.8336 38.6643 26.4676 36.0853 27.6114V27.7748C39.545 28.5427 42.1712 30.2421 43.9482 32.8728C45.7252 35.5199 46.6216 38.8205 46.6216 42.8074C46.6216 45.095 46.2284 47.2355 45.4421 49.2127C44.6558 51.2061 43.4292 52.9218 41.7466 54.3597C40.0639 55.7976 37.9252 56.9414 35.299 57.7911C32.6728 58.6408 29.5591 59.0656 25.9421 59.0656H0.151794V0.732269ZM9.98043 25.1604H26.0208C28.3796 25.1604 30.3454 24.4741 31.9179 23.0689C33.4905 21.6636 34.2768 19.6702 34.2768 17.0558C34.2768 14.1146 33.5691 12.0395 32.1538 10.8466C30.7385 9.65384 28.6941 9.04926 26.0208 9.04926H9.98043V25.1604ZM9.98043 50.7323H27.3575C30.3454 50.7323 32.6728 49.9316 34.3083 48.314C35.9595 46.7127 36.7929 44.4251 36.7929 41.4839C36.7929 38.5917 35.9752 36.3859 34.3083 34.8172C32.6413 33.2486 30.3454 32.497 27.3575 32.497H9.98043V50.7323Z" fill="white"/>
</svg>
