<svg width="86" height="80" viewBox="0 0 86 80" fill="none" xmlns="http://www.w3.org/2000/svg">
<path d="M70.9386 51.5405C70.4249 51.7183 69.8977 51.8902 69.3605 52.0569C68.1715 48.1207 66.5666 43.9352 64.6027 39.6109C66.4768 35.3895 68.0196 31.2575 69.1754 27.3469C70.1365 27.6378 71.0694 27.9445 71.9683 28.2682C80.6629 31.3978 85.9665 36.025 85.9665 39.5904C85.9665 43.3882 80.2388 48.3183 70.9386 51.5405ZM67.0797 59.5358C68.0199 64.502 68.1542 68.9919 67.5314 72.5019C66.9718 75.6558 65.8465 77.7586 64.455 78.6008C61.494 80.3929 55.1619 78.0634 48.3329 71.9189C47.55 71.2145 46.7615 70.4624 45.9704 69.6664C48.6179 66.6389 51.2638 63.1193 53.8462 59.2104C58.3883 58.789 62.6796 58.1 66.5711 57.1594C66.7628 57.9678 66.933 58.7607 67.0797 59.5358ZM28.0555 78.2911C25.1625 79.3594 22.8584 79.39 21.4656 78.5503C18.502 76.7629 17.2699 69.8636 18.9505 60.6088C19.143 59.549 19.3721 58.4602 19.6362 57.3474C23.4851 58.2373 27.7449 58.8776 32.2979 59.2636C34.8977 63.0885 37.62 66.6042 40.3635 69.6826C39.7641 70.2877 39.167 70.8637 38.5733 71.4065C34.9279 74.7383 31.2749 77.1022 28.0555 78.2911ZM14.5024 51.5172C9.92094 49.8799 6.13742 47.7519 3.544 45.4298C1.21366 43.3431 0.0371094 41.2714 0.0371094 39.5904C0.0371094 36.0131 5.13782 31.4503 13.6449 28.3489C14.6771 27.9726 15.7577 27.618 16.879 27.2849C18.0547 31.2838 19.597 35.4647 21.4583 39.6925C19.573 43.9831 18.0088 48.2307 16.8215 52.2765C16.0221 52.0362 15.2476 51.7834 14.5024 51.5172ZM19.0455 19.1821C17.2797 9.74652 18.4524 2.62864 21.4034 0.842526C24.5467 -1.06023 31.4975 1.65269 38.8233 8.45424C39.2916 8.88896 39.7617 9.34397 40.2332 9.81472C37.5033 12.8797 34.8059 16.369 32.2292 20.1714C27.8103 20.5996 23.5804 21.2875 19.6914 22.2088C19.4469 21.1804 19.2303 20.17 19.0455 19.1821ZM59.5742 29.6461C58.6445 27.967 57.6901 26.3276 56.7171 24.733C59.7149 25.1293 62.5871 25.6553 65.2844 26.299C64.4746 29.0126 63.4653 31.8498 62.2772 34.7584C61.4249 33.0666 60.5235 31.3607 59.5742 29.6461ZM43.0467 12.8141C44.8981 14.9113 46.7521 17.2528 48.5757 19.7933C46.7381 19.7025 44.8777 19.6553 43.0019 19.6553C41.1438 19.6553 39.2971 19.7015 37.4709 19.7907C39.2963 17.2738 41.1664 14.9354 43.0467 12.8141ZM26.4133 29.6752C25.4846 31.359 24.5999 33.0556 23.761 34.7553C22.5922 31.8568 21.5922 29.0066 20.7754 26.2545C23.4562 25.6273 26.3148 25.1144 29.2936 24.7257C28.3068 26.335 27.3445 27.9864 26.4133 29.6748V29.6752ZM29.3794 54.7546C26.3018 54.3956 23.4001 53.9091 20.7201 53.2991C21.5499 50.4979 22.5719 47.5868 23.7656 44.626C24.6066 46.3245 25.4948 48.0218 26.4292 49.7092H26.4294C27.3812 51.4284 28.3672 53.1124 29.3794 54.7546ZM43.1577 66.6627C41.2554 64.5165 39.3578 62.1425 37.5046 59.5888C39.3037 59.6626 41.1378 59.7004 43.0019 59.7004C44.917 59.7004 46.8102 59.6553 48.6736 59.5685C46.8439 62.1682 44.9966 64.5459 43.1577 66.6627ZM62.3155 44.4751C63.5713 47.4679 64.6299 50.3638 65.4705 53.1173C62.7463 53.7671 59.805 54.2905 56.706 54.6794C57.6814 53.0632 58.6442 51.3957 59.5903 49.6804C60.5474 47.945 61.4562 46.207 62.3155 44.4751ZM56.1135 47.5837C54.6448 50.2464 53.1369 52.7883 51.6061 55.1877C48.8181 55.3962 45.9376 55.5035 43.0019 55.5035C40.078 55.5035 37.2339 55.4086 34.4951 55.2227C32.9026 52.7918 31.362 50.2424 29.9027 47.6066H29.903C28.4475 44.978 27.1079 42.3271 25.894 39.6912C27.1075 37.049 28.4436 34.3952 29.8908 31.7713L29.8905 31.7718C31.3414 29.1409 32.8685 26.6039 34.4463 24.1883C37.2406 23.9674 40.1059 23.8522 43.0017 23.8522H43.0019C45.9107 23.8522 48.7798 23.9683 51.5732 24.1911C53.1269 26.5891 54.6436 29.1178 56.1003 31.7491C57.5735 34.4099 58.9268 37.0461 60.1507 39.6315C58.9305 42.2614 57.5802 44.9241 56.1135 47.5837ZM64.3935 0.717669C67.5398 2.61483 68.7633 10.2661 66.7865 20.2992C66.6604 20.9394 66.5184 21.5915 66.3642 22.2523C62.4662 21.3119 58.2333 20.612 53.8015 20.1773C51.2198 16.3331 48.5444 12.8384 45.859 9.8128C46.581 9.08657 47.302 8.39408 48.02 7.7406C54.9565 1.42869 61.4396 -1.06338 64.3935 0.717669Z" fill="white"/>
</svg>
