<svg width="32" height="48" viewBox="0 0 32 48" fill="none" xmlns="http://www.w3.org/2000/svg">
<path d="M0.286804 37.5603L7.651 33.13C9.58959 36.4195 12.1091 38.8359 16.5665 38.8359C20.314 38.8359 22.7037 36.889 22.7037 34.2039C22.7037 30.9819 20.2489 29.8406 16.1142 27.9617L13.8537 26.9541C7.32836 24.0682 2.99976 20.4435 2.99976 12.7909C2.99976 5.74269 8.16795 0.372375 16.2437 0.372375C21.9935 0.372375 26.1281 2.45349 29.0995 7.89079L22.0577 12.5894C20.5071 9.70316 18.8279 8.56221 16.2439 8.56221C13.5951 8.56221 11.9153 10.3074 11.9153 12.5894C11.9153 15.4087 13.5951 16.5501 17.4709 18.2955L19.7318 19.3024C27.4197 22.726 31.7483 26.2162 31.7483 34.0697C31.7483 42.5281 25.3527 47.1593 16.7605 47.1593C8.36212 47.1593 2.93529 42.9978 0.286959 37.5603" fill="black"/>
</svg>
